inDegrees=yes
name=ik_S41_A13_T02
DataType=double
version=3
OpenSimVersion=4.3-2021-08-27-4bc7ad9
endheader
time	pelvis_tilt	pelvis_list	pelvis_rotation	pelvis_tx	pelvis_ty	pelvis_tz	hip_flexion_r	hip_adduction_r	hip_rotation_r	knee_angle_r	knee_angle_r_beta	ankle_angle_r	subtalar_angle_r	mtp_angle_r	hip_flexion_l	hip_adduction_l	hip_rotation_l	knee_angle_l	knee_angle_l_beta	ankle_angle_l	subtalar_angle_l	mtp_angle_l	lumbar_extension	lumbar_bending	lumbar_rotation	arm_flex_r	arm_add_r	arm_rot_r	elbow_flex_r	pro_sup_r	wrist_flex_r	wrist_dev_r	arm_flex_l	arm_add_l	arm_rot_l	elbow_flex_l	pro_sup_l	wrist_flex_l	wrist_dev_l
7.019999999999938	1.154900745616405	-1.17911059712639	47.10603642081198	0	0.9399999999999999	0	28.95288533914314	-9.15543396104888	-8.328704081057342	33.28772965338568	0.5809804829653308	0	0	0	28.95288533914314	-9.15543396104888	-8.328704081057342	33.28772965338568	0.5809804829653308	0	0	0	1.238688419804699	-0.7017909041818818	14.65974239326171	89.14350120857684	-4.713826806197048	16.08926326261864	27.24364945360237	82.92467903806251	0	0	83.32163423106726	16.95881869256601	7.669984385564413	35.41015358510415	43.14969879349301	0	0
7.039999999999938	1.15727408388684	-1.156629395659535	47.10684615585974	0	0.9399999999999999	0	28.95524013556119	-9.155825156150698	-8.3292111596787	33.29013199716295	0.581022411774009	0	0	0	28.95524013556119	-9.155825156150698	-8.3292111596787	33.29013199716295	0.581022411774009	0	0	0	1.257006038733338	-0.6881360996535716	14.6848195366028	89.03761342579047	-4.885742483374729	15.94575029376471	27.33612962790684	82.95412052440582	0	0	83.36731850586114	16.91957732522231	7.509441539364836	35.34221879627008	43.25639607266555	0	0
7.059999999999937	1.152253179160602	-1.134397282604543	47.10833706567215	0	0.9399999999999999	0	28.9636702895541	-9.157293711157726	-8.33108194702374	33.29838476745893	0.5811664497880846	0	0	0	28.9636702895541	-9.157293711157726	-8.33108194702374	33.29838476745893	0.5811664497880846	0	0	0	1.269732889276054	-0.6694796022086417	14.70326058077028	88.88311996368284	-5.059366958840151	15.96249464069601	27.74881560505679	82.89848942564056	0	0	83.35760823739439	16.90378158226727	7.533243696203662	35.27847750929075	43.47731818924251	0	0
7.079999999999937	1.140066594248328	-1.134548290277267	47.1112022692251	0	0.9399999999999999	0	28.96579998967808	-9.157653282292861	-8.33154533135942	33.3005262683174	0.5812038260289992	0	0	0	28.96579998967808	-9.157653282292861	-8.33154533135942	33.3005262683174	0.5812038260289992	0	0	0	1.26125260576545	-0.6607119612168458	14.70501847094408	88.84400935686777	-5.19164773880823	16.04129729967184	27.84582446880621	82.88377474286619	0	0	83.35605872961783	16.77497725863109	7.700992340132416	35.35781699620567	43.57634499265875	0	0
7.099999999999937	1.146057104534476	-1.11822513955474	47.13651011167212	0	0.9399999999999999	0	28.97198645997906	-9.158714083049203	-8.332904813747389	33.30666079584019	0.5813108937323263	0	0	0	28.97198645997906	-9.158714083049203	-8.332904813747389	33.30666079584019	0.5813108937323263	0	0	0	1.277021089334207	-0.6542728216459974	14.70210496842525	88.67970837845819	-5.383746608132189	16.12046316188502	28.15539882617878	82.79474305427917	0	0	83.27696058394471	16.66912976403426	7.787812892448996	35.5614707898433	44.0308684943226	0	0
7.119999999999936	1.156355566886049	-1.109867468235239	47.1981965546637	0	0.9399999999999999	0	28.97640005879484	-9.159468742482682	-8.333873059547567	33.31104605248195	0.5813874308992698	0	0	0	28.97640005879484	-9.159468742482682	-8.333873059547567	33.31104605248195	0.5813874308992698	0	0	0	1.289440781284813	-0.656519509439094	14.66538069455711	88.54304489609243	-5.556372778059684	16.15210193966882	28.43635974913184	82.73361911395745	0	0	83.26634442116494	16.5438282813547	7.829510097424417	35.63107325907832	44.67980183729688	0	0
7.139999999999936	1.152701140468041	-1.088994751560958	47.1897352748698	0	0.9399999999999999	0	28.98314654525675	-9.160637595643765	-8.335365730559268	33.3176674723087	0.5815029964764035	0	0	0	28.98314654525675	-9.160637595643765	-8.335365730559268	33.3176674723087	0.5815029964764035	0	0	0	1.301968325625142	-0.6399068926798788	14.6623776003827	88.39668015026069	-5.692221198478777	16.16081346196187	28.63480496889383	82.79636140186838	0	0	83.20154411157677	16.46109032549528	7.913267923164897	35.60394130112392	45.47479114697915	0	0
7.159999999999935	1.141382173692259	-1.06789712919638	47.14837185578663	0	0.9399999999999999	0	28.98926584107528	-9.161701666573927	-8.336723043247115	33.32364831949402	0.5816073819518459	0	0	0	28.98926584107528	-9.161701666573927	-8.336723043247115	33.32364831949402	0.5816073819518459	0	0	0	1.309655815062515	-0.6173358779527914	14.67856731547035	88.29286357727206	-5.823857477915025	16.12629783630411	28.79321280829921	82.91741176209707	0	0	83.14873092427663	16.41380981776012	7.920298928916434	35.59646389109029	45.95010189868646	0	0
7.179999999999935	1.134433319948048	-1.076048364921906	47.12089651521187	0	0.9399999999999999	0	28.99530988458963	-9.162733097580841	-8.338047865230159	33.32965224183494	0.581712170164729	0	0	0	28.99530988458963	-9.162733097580841	-8.338047865230159	33.32965224183494	0.581712170164729	0	0	0	1.299152014208993	-0.6178137602863299	14.706237857093	88.26324966276322	-5.994076744985675	16.0147633238753	28.99006023448016	83.37633728241357	0	0	83.19246282190889	16.35434778772229	7.873728242746966	35.62150035029447	47.02069046132645	0	0
7.199999999999934	1.138393935970127	-1.049523755884234	47.06403314577608	0	0.9399999999999999	0	29.00335378742241	-9.164119376746109	-8.339822421663662	33.33756677239236	0.5818503047817056	0	0	0	29.00335378742241	-9.164119376746109	-8.339822421663662	33.33756677239236	0.5818503047817056	0	0	0	1.321404968632832	-0.6025964867694636	14.73018782920543	88.13972521271567	-6.105997509582912	15.86627180293133	29.10467256925429	83.48580208337034	0	0	83.19305224610609	16.32063521596314	7.711125311553763	35.46672725592342	48.08106238937824	0	0
7.219999999999934	1.136812093972302	-1.049721094525707	47.02554562784659	0	0.9399999999999999	0	29.00900939628402	-9.165103470457797	-8.341077970085649	33.34307923434411	0.5819465153926546	0	0	0	29.00900939628402	-9.165103470457797	-8.341077970085649	33.34307923434411	0.5819465153926546	0	0	0	1.320324223923938	-0.6015261263050214	14.75987930107295	88.11390891289963	-6.282075530641849	15.63305983915127	29.26199537204158	83.44480370141977	0	0	83.25111305238393	16.36009226344946	7.61307587367796	35.34868915165539	48.18250535968497	0	0
